<!--?xml version="1.0" standalone="no"?-->
              <svg id="sw-js-blob-svg" viewBox="0 0 100 100" xmlns="http://www.w3.org/2000/svg" version="1.1">
                    <defs> 
                        <linearGradient id="sw-gradient" x1="0" x2="1" y1="1" y2="0">
                            <stop id="stop1" stop-color="rgba(248, 117, 55, 1)" offset="0%"></stop>
                            <stop id="stop2" stop-color="rgba(251, 168, 31, 1)" offset="100%"></stop>
                        </linearGradient>
                    </defs>
                <path fill="url(#sw-gradient)" d="M20.8,-25.6C28.1,-18.7,36,-13.2,38.9,-5.5C41.9,2.2,39.9,12,33.9,16.8C27.8,21.5,17.7,21.1,9.8,21.6C1.9,22.2,-3.6,23.8,-9.4,22.9C-15.1,22.1,-21.1,18.8,-23.4,13.9C-25.8,9,-24.6,2.5,-24.9,-5.9C-25.2,-14.3,-27.1,-24.4,-23.3,-32C-19.4,-39.5,-9.7,-44.3,-1.5,-42.6C6.8,-40.8,13.5,-32.5,20.8,-25.6Z" width="100%" height="100%" transform="translate(50 50)" style="transition: all 0.3s ease 0s;" stroke-width="0"></path>
              </svg>